<?xml version="1.0" standalone="no"?><!DOCTYPE svg PUBLIC "-//W3C//DTD SVG 1.1//EN" "http://www.w3.org/Graphics/SVG/1.1/DTD/svg11.dtd"><svg t="1662453940961" class="icon" viewBox="0 0 1024 1024" version="1.1" xmlns="http://www.w3.org/2000/svg" p-id="1454" xmlns:xlink="http://www.w3.org/1999/xlink" width="200" height="200"><path d="M476 267h72v232h-72zM284.281 795.282l-46.28-55.155L415.722 591l46.28 55.155zM739.722 795.282l46.28-55.155L608.282 591 562 646.155z" fill="#333333" p-id="1455"></path><path d="M512 587m-136 0a136 136 0 1 0 272 0 136 136 0 1 0-272 0Z" fill="#586cca" p-id="1456" data-spm-anchor-id="a313x.7781069.0.i7" class="selected"></path><path d="M512 235m-96 0a96 96 0 1 0 192 0 96 96 0 1 0-192 0Z" fill="#333333" p-id="1457"></path><path d="M224 789m-96 0a96 96 0 1 0 192 0 96 96 0 1 0-192 0Z" fill="#333333" p-id="1458"></path><path d="M800 789m-96 0a96 96 0 1 0 192 0 96 96 0 1 0-192 0Z" fill="#333333" p-id="1459"></path></svg>